<?xml version="1.0" encoding="UTF-8"?>
<svg width="401px" height="610px" viewBox="0 0 401 610" version="1.1" xmlns="http://www.w3.org/2000/svg" xmlns:xlink="http://www.w3.org/1999/xlink">
    <title>react-china-logo</title>
    <g id="react-china-logo" stroke="none" stroke-width="1" fill="none" fill-rule="evenodd">
        <g id="Group-3" transform="translate(0.000000, 14.000000)">
            <path d="M192.633497,585.451652 C199.863784,557.763259 203.991269,528.644334 205.015953,498.094876 C206.040636,467.545418 205.057164,435.83143 202.065535,402.952914" id="Line-4" stroke="#D43445" stroke-width="10" stroke-linecap="square" transform="translate(199.020796, 494.202283) rotate(4.000000) translate(-199.020796, -494.202283) "></path>
            <path d="M168.270327,580.683382 C183.61525,548.784032 192.700273,518.801767 195.525395,490.736588 C198.350518,462.671409 198.350518,433.057559 195.525395,401.895041" id="Line-4" stroke="#D43445" stroke-width="10" stroke-linecap="square" transform="translate(182.957282, 491.289212) rotate(4.000000) translate(-182.957282, -491.289212) "></path>
            <path d="M145.721925,572.427739 C165.655166,545.354579 178.946061,518.564841 185.594609,492.058526 C192.243158,465.55221 193.311263,433.529909 188.798926,395.99162" id="Line-4" stroke="#D43445" stroke-width="10" stroke-linecap="square" transform="translate(168.628677, 484.209680) rotate(4.000000) translate(-168.628677, -484.209680) "></path>
            <path d="M128.357357,559.442584 C151.682563,535.057668 168.317582,509.518768 178.262413,482.825884 C188.207245,456.133 190.746391,428.550518 185.879851,400.078441" id="Line-4" stroke="#D43445" stroke-width="10" stroke-linecap="square" transform="translate(158.317845, 479.760512) rotate(4.000000) translate(-158.317845, -479.760512) "></path>
            <g id="React" transform="translate(0.000000, 13.600000)" fill="#D43445" fill-rule="nonzero">
                <path d="M200.5,260.1 C150.2,260.1 106.2,254.2 73.3,242.9 C28.1,227.4 0,202.6 0,178 C0,154.3 26,131.1 69.6,115.9 C105.3,103.4 151.8,96.6 200.5,96.6 C248.3,96.6 294.2,103.3 329.7,115.6 C374.3,131 401,154.3 401,178 C401,202.6 371.9,227.5 325.1,243 C291.9,254.1 247.7,260.1 200.5,260.1 Z M200.5,113.8 C154.3,113.8 108.7,120.5 75.2,132.2 C35.1,146.2 17.1,165.3 17.1,178.1 C17.1,191.4 36.4,212.3 78.8,226.8 C109.9,237.4 152,243.1 200.4,243.1 C245.8,243.1 288.1,237.4 319.6,226.9 C363.7,212.3 383.7,191.4 383.7,178.1 C383.7,165.7 365,146 324,131.9 C290.4,120.2 246.5,113.8 200.5,113.8 Z" id="Shape"></path>
                <path d="M200.5,142.3 C220.3,142.3 236.3,158.3 236.3,178.1 C236.3,197.9 220.3,213.9 200.5,213.9 C180.7,213.9 164.7,197.9 164.7,178.1 C164.7,158.3 180.7,142.3 200.5,142.3" id="Path"></path>
                <path d="M119.2,356.6 C111.9,356.6 105.5,355 100.1,351.9 C79.6,340.1 72.5,305.9 81.1,260.6 C88.2,223.4 105.4,179.7 129.8,137.5 C153.7,96.1 182.4,59.7 210.8,35.1 C236.8,12.5 262.2,-5.68434189e-14 282.2,-5.68434189e-14 C289.1,-5.68434189e-14 295.3,1.5 300.5,4.5 C321.8,16.8 328.9,54.4 318.9,102.7 C311.8,136.9 295,178.3 271.4,219.2 C246.3,262.8 219.2,297.9 193,320.8 C166.8,343.6 140,356.6 119.2,356.6 Z M282,17.2 C266.6,17.2 244.1,28.8 221.9,48.1 C195,71.5 167.5,106.4 144.5,146.2 C121.4,186.2 104.4,229.1 97.8,263.9 C89.9,305.6 97.5,330.8 108.5,337.1 C111.3,338.7 114.8,339.5 119.1,339.5 C135.6,339.5 158.9,327.7 181.5,307.9 C206.3,286.2 232.2,252.6 256.4,210.7 C279.1,171.4 295.3,131.8 302,99.3 C311.4,53.8 303.3,26 291.8,19.4 C289.2,17.9 285.9,17.2 282,17.2 Z" id="Shape"></path>
                <path d="M281.9,356.8 C262.2,356.8 237.4,344.8 212.1,323 C183.4,298.3 154.2,261.5 129.8,219.4 C105.8,178 88.7,134.9 81.5,98.1 C72.4,51.8 79.3,17 99.8,5.1 C105.1,2 111.5,0.4 118.7,0.4 C139.6,0.4 167.1,14.2 194.1,38.1 C220.2,61.3 247.7,96.6 271.3,137.4 C296.5,180.9 313.4,221.9 320.1,256.1 C329.4,303 321.9,339.8 300.7,352.1 C295.3,355.2 289,356.8 281.9,356.8 Z M118.6,17.6 C114.5,17.6 111,18.4 108.3,20 C97.6,26.2 89.9,52.3 98.2,94.8 C105.1,129.8 121.5,171 144.5,210.8 C167.6,250.8 196.3,286.9 223.2,310 C245.1,328.8 266.4,339.6 281.8,339.6 C285.9,339.6 289.3,338.8 292,337.3 C303.5,330.6 311.9,303.5 303.2,259.5 C296.8,227.2 280.6,188 256.3,146.1 C233.6,106.8 207.4,73 182.6,51 C159.1,30.1 135.1,17.6 118.6,17.6 Z" id="Shape"></path>
            </g>
            <line x1="200.5" y1="0" x2="200" y2="62.5" id="Line-3" stroke="#D43445" stroke-width="20" stroke-linecap="round"></line>
            <line x1="200.5" y1="325" x2="200" y2="387.5" id="Line-3" stroke="#D43445" stroke-width="20" stroke-linecap="round"></line>
            <circle id="Oval" stroke="#D43445" stroke-width="20" fill="#D43445" cx="200" cy="395" r="15"></circle>
        </g>
    </g>
</svg>